# xmcd
#
# Track frame offsets:
#	150
#	14817
#	29339
#	44656
#	63142
#	78144
#	95433
#	112610
#	126482
#	143883
#	158693
#	174616
#	189629
#	204173
#	221778
#	222525
#	223288
#	224078
#	225111
#	225958
#	226700
#	227483
#	228232
#	229015
#	229882
#	230864
#	231680
#	232505
#	233292
#	234075
#	234772
#	235483
#	236221
#	237131
#	237938
#	238647
#	239318
#	240053
#	240850
#	241680
#	242889
#	243742
#	244539
#	245445
#
# Disc length: 3280 seconds
#
# Revision: 1
# Processed by: cddbd v1.5.2PL0 Copyright (c) Steve Scherf et al.
# Submitted via: audiograbber 1.83.01
#
DISCID=380cce2c
DTITLE=Various Artist - CDX Volume 621 (August 24, 2015)
DYEAR=2015
DGENRE=Country
TTITLE0=Little Big Town - Pain Killer 
TTITLE1=Michael Ray - Real Men Love Jesus
TTITLE2=Scotty McCreery - Southern Belle 
TTITLE3=Luke Bryan - Strip It Down 
TTITLE4=Ashley Gearing - Train Track
TTITLE5=Broseph E. Lee - Fill 'Em On Up
TTITLE6=Shawn O'Shields - Guitars Guns And God
TTITLE7=Southern Halo - Little White Dress
TTITLE8=Leanne Weiss - Momentum
TTITLE9=Emily Haines - Outside In
TTITLE10=Emily Vance - Serendipity
TTITLE11=Jake Clayton - What Not To Do
TTITLE12=Gord Bamford - When Your Lips Are So Close
TTITLE13=Holly Spears - Who Said 
TTITLE14=JB And The Moonshine Band - Radio Liner - Home Town Country
TTITLE15=JB And The Moonshine Band - Radio Liner - Kickin' Country
TTITLE16=JB And The Moonshine Band - Radio Liner - More of the CountryYou Love
TTITLE17=JB And The Moonshine Band - Radio Liner - Our New Single
TTITLE18=JB And The Moonshine Band - Radio Liner - Super Country
TTITLE19=JB And The Moonshine Band - Radio Liner - Today's Best Country
TTITLE20=JB And The Moonshine Band - Radio Liner - Today's Hot Country
TTITLE21=Macy Martin - Radio Liner - Home Town Country
TTITLE22=Macy Martin - Radio Liner - Kickin' Country
TTITLE23=Macy Martin - Radio Liner - More of the Country You Love
TTITLE24=Macy Martin - Radio Liner - My New Single
TTITLE25=Macy Martin - Radio Liner - Super Country
TTITLE26=Macy Martin - Radio Liner - The Best In Country
TTITLE27=Macy Martin - Radio Liner - Today's Best Country
TTITLE28=Macy Martin - Radio Liner - Today's Hot Country Music
TTITLE29=Adam Searan - Radio Liner - Home Town Country
TTITLE30=Adam Searan - Radio Liner - Kickin' Country
TTITLE31=Adam Searan - Radio Liner - More of the Country You Love
TTITLE32=Adam Searan - Radio Liner - My New Single
TTITLE33=Adam Searan - Radio Liner - Super Country
TTITLE34=Adam Searan - Radio Liner - The Best In Country Music
TTITLE35=Adam Searan - Radio Liner - Today's Best Country
TTITLE36=Adam Searan - Radio Liner - Today's Hot Country
TTITLE37=Southern Halo - Radio Liner - Home Town Country
TTITLE38=Southern Halo - Radio Liner - More of the Country You Love
TTITLE39=Southern Halo - Radio Liner - Our New Single
TTITLE40=Southern Halo - Radio Liner - Super Country
TTITLE41=Southern Halo - Radio Liner - The Best In Country Music
TTITLE42=Southern Halo - Radio Liner - Today's Best Country
TTITLE43=Southern Halo - Radio Liner - Today's Hot Country Music
EXTD=
EXTT0=
EXTT1=
EXTT2=
EXTT3=
EXTT4=
EXTT5=
EXTT6=
EXTT7=
EXTT8=
EXTT9=
EXTT10=
EXTT11=
EXTT12=
EXTT13=
EXTT14=
EXTT15=
EXTT16=
EXTT17=
EXTT18=
EXTT19=
EXTT20=
EXTT21=
EXTT22=
EXTT23=
EXTT24=
EXTT25=
EXTT26=
EXTT27=
EXTT28=
EXTT29=
EXTT30=
EXTT31=
EXTT32=
EXTT33=
EXTT34=
EXTT35=
EXTT36=
EXTT37=
EXTT38=
EXTT39=
EXTT40=
EXTT41=
EXTT42=
EXTT43=
PLAYORDER=
